<?xml version="1.0" encoding="UTF-8"?>
<!DOCTYPE svg PUBLIC "-//W3C//DTD SVG 1.1//EN" "http://www.w3.org/Graphics/SVG/1.1/DTD/svg11.dtd">
<!-- Creator: CorelDRAW -->
<svg xmlns="http://www.w3.org/2000/svg" xml:space="preserve" width="150.119mm" height="122.235mm" version="1.1" style="shape-rendering:geometricPrecision; text-rendering:geometricPrecision; image-rendering:optimizeQuality; fill-rule:evenodd; clip-rule:evenodd"
viewBox="0 0 14544.22 11842.73"
 xmlns:xlink="http://www.w3.org/1999/xlink"
 xmlns:xodm="http://www.corel.com/coreldraw/odm/2003">
 <defs>
  <style type="text/css">
   <![CDATA[
    .fil0 {fill:#333333}
    .fil1 {fill:red}
   ]]>
  </style>
 </defs>
 <g id="Camada_x0020_1">
  <metadata id="CorelCorpID_0Corel-Layer"/>
  <path class="fil0" d="M11830.08 2012.98c-267.2,454.93 -993.64,157.84 -958.05,-257.22 164.14,100.89 231.19,169.03 452.53,229.09 229.27,62.21 312.94,24.58 505.52,28.13zm762.85 2970.73c77.03,47.72 260.06,233.65 329.69,301.73 286.42,280.06 224.66,233.57 525.83,18.99l830.6 -630.11c30.47,-24.84 53.13,-36.8 87.04,-61.42 272.63,-197.94 187.64,-208.66 40.68,-441.48l-1029.81 -1559.65c-62.23,-85.47 -63.29,-80.9 -165,-150.08l-944.15 -648.47c-239.49,-162.38 -176.85,-121.96 -411.37,-59.11 -299.48,80.25 -671.41,-17.09 -884.33,-242.32 -178.25,-188.56 -87.31,-168.65 -389.82,-146.15l-1152.05 90.66c-196.77,12.2 -312.17,103.16 -491.39,193.19l-182.77 89.85c-182.19,75.42 -549.7,278.38 -744.08,373.75l-561.52 283.7c-119.38,61.09 -192.68,63.44 -105.31,259.72l162.39 386.52c26.35,67.34 46.85,126.34 77.78,189.67l165.66 383.93c51.17,135.58 110.59,253.78 159.89,388.29 56.32,153.68 258.11,70.84 388.76,36.57 70.28,-18.44 136.95,-30.86 206.85,-48.05 63.78,-15.68 158.64,-44.16 218.73,-46.02 -256.74,912.08 -506.66,1822.02 -772.53,2730.04 -27.58,94.21 -196.18,593.81 -184.23,646.43 21.4,94.16 153.19,111.41 262.36,138.5 1145.41,284.26 2284.44,594.83 3419.71,916.79 112.74,31.97 236.15,87.95 291.25,0.48 26.63,-42.28 138.46,-574.35 161.87,-670.18 221.8,-907.85 468.94,-1816.16 689.26,-2725.79z"/>
  <path class="fil0" d="M2143.48 3922.48c-47.2,-83.63 4.16,-122.03 48.56,-162.63l1102.67 -1091.22c84.31,-83.77 163.6,-163.15 249.32,-246.05l490.34 -486.06c485.05,-517.65 780.66,-389.51 1351.98,-235.41l2169.11 568.44c30.84,7.66 151.59,34.97 165.75,41.69 61.38,29.12 73.7,111.66 33.89,161.78 -38.29,48.19 -143.34,60.66 -206.65,77.59l-4998.65 1339.37c-114.4,30.64 -347.14,137.38 -406.33,32.5zm1563.67 -3185.61l275.73 -74.87c0.7,-131.37 -10.37,-297.94 211.37,-358.08 318.39,-86.33 573.19,389.79 144,568.13 -90.15,37.46 -115.56,82.47 -92.62,188.35 20.89,96.4 54.39,197.87 78.05,295.24 -160.48,93.75 -213.62,108.9 -348.87,230.62 -96.8,87.13 -182.79,179.33 -276.58,272.5 -185.87,184.66 -363.88,366.32 -557.27,552.75 -378.49,364.87 -740.78,734.37 -1116.06,1104.74 -112.23,110.78 -174.87,153.23 -187.83,323.24 -13.52,177.36 86.51,302.7 195.41,367.56 145,86.37 232.99,62.44 431.05,9.12l5160.67 -1382.92c197.06,-52.78 302,-71.2 389.63,-221.72 60.67,-104.2 91.25,-258.29 0.94,-407.3 -91.64,-151.24 -176.72,-162.19 -326.52,-200.78l-2277.91 -598.63c-393.91,-102.64 -384.8,-130.8 -802.45,-124.85l-49.28 -181.13c149.47,-127.51 289.02,-216.3 295.55,-501.27 11.6,-506.63 -596.18,-790.02 -975.8,-447.18 -161.26,145.64 -234.16,371.99 -171.21,586.49z"/>
  <path class="fil1" d="M5412.98 2022.41c-5.8,777.23 -1151.46,933.3 -1411.78,377.52 283.74,7.82 419.47,45.37 746.11,-41.05 338.33,-89.5 417.36,-199.15 665.67,-336.47zm3161.51 3228.23c133.42,4.13 503.89,106.52 642.86,142.09 571.73,146.33 458.68,132.52 684.87,-363.1l595.57 -1415.73c20.58,-54.15 40.68,-86.08 65.8,-142.48 202.04,-453.36 85.69,-404.43 -273.29,-593.23l-2462.69 -1231.29c-142.35,-63.21 -140.33,-56.6 -321.07,-69.94l-1682.23 -131.87c-425.16,-30.76 -315.48,-25.33 -568.39,227.6 -322.98,322.99 -869.18,472.75 -1306.73,342.24 -366.31,-109.27 -235.62,-150.85 -605,100.68l-1403.04 964.27c-242.06,160.5 -322.28,361.56 -484.62,608.43l-167 249.27c-176.9,230.43 -496.28,760.09 -674.01,1024.93l-507.42 775.57c-107.32,165.86 -199.1,222.86 56.95,408.92l491.88 373.52c83.23,66.51 152.85,126.68 238.95,184.69l494.15 367.8c165.17,135.28 328.04,242.32 490.01,377.62 185.06,154.58 381.49,-99.74 522.93,-239.69 76.09,-75.29 151.99,-140.25 228.52,-213.66 69.82,-66.98 169.87,-173.2 245.16,-219.84 344.28,1352.78 695.68,2697.8 1025.33,4052.11 34.21,140.51 187.1,902.11 241.13,960.44 96.66,104.37 277.52,29.31 436.75,-16.55 1670.73,-481.04 3352.7,-923.82 5038.28,-1349.29 167.37,-42.25 366.07,-61.73 371.94,-213.91 2.83,-73.55 -246.43,-834.76 -287.15,-974.27 -385.76,-1321.62 -739.51,-2662.53 -1128.44,-3985.33z"/>
 </g>
</svg>
