<?xml version="1.0" encoding="UTF-8"?>
<!DOCTYPE svg PUBLIC "-//W3C//DTD SVG 1.1//EN" "http://www.w3.org/Graphics/SVG/1.1/DTD/svg11.dtd">
<!-- Creator: CorelDRAW -->
<svg xmlns="http://www.w3.org/2000/svg" xml:space="preserve" width="22.1632mm" height="28.5556mm" version="1.1" style="shape-rendering:geometricPrecision; text-rendering:geometricPrecision; image-rendering:optimizeQuality; fill-rule:evenodd; clip-rule:evenodd"
viewBox="0 0 117.43 151.3"
 xmlns:xlink="http://www.w3.org/1999/xlink"
 xmlns:xodm="http://www.corel.com/coreldraw/odm/2003">
 <defs>
  <style type="text/css">
   <![CDATA[
    .fil0 {fill:#FEFEFE}
   ]]>
  </style>
 </defs>
 <g id="Camada_x0020_1">
  <metadata id="CorelCorpID_0Corel-Layer"/>
  <g id="_2021406640128">
   <path class="fil0" d="M8.43 33.79c-0.71,27.71 -0.04,56.34 -0.04,84.15 0,14.7 -1.64,26.43 10.21,31.74 5.47,2.45 31.98,1.33 40.05,1.32 8.29,-0 34.86,1.28 40.57,-1.48 12.04,-5.84 9.8,-17.28 9.81,-32.27 0.01,-18.02 0.88,-69.64 -0.11,-83.67l-100.48 0.21z"/>
   <path class="fil0" d="M29.44 8.35l-29.44 0.08 0 16.52c36.72,0.77 80.17,0.28 117.43,0.18l-0.01 -16.65 -28.3 -0.09c-4.26,-1.22 -5.86,-6.71 -10.39,-8.39l-40.16 0c-2.7,1.17 -7.21,6.28 -9.13,8.35z"/>
  </g>
 </g>
</svg>
