<?xml version="1.0" encoding="UTF-8"?>
<!DOCTYPE svg PUBLIC "-//W3C//DTD SVG 1.1//EN" "http://www.w3.org/Graphics/SVG/1.1/DTD/svg11.dtd">
<!-- Creator: CorelDRAW -->
<svg xmlns="http://www.w3.org/2000/svg" xml:space="preserve" width="151.401mm" height="23.9631mm" version="1.1" style="shape-rendering:geometricPrecision; text-rendering:geometricPrecision; image-rendering:optimizeQuality; fill-rule:evenodd; clip-rule:evenodd"
viewBox="0 0 4005 633.89"
 xmlns:xlink="http://www.w3.org/1999/xlink"
 xmlns:xodm="http://www.corel.com/coreldraw/odm/2003">
 <defs>
  <style type="text/css">
   <![CDATA[
    .fil0 {fill:#605E5F}
    .fil6 {fill:black}
    .fil7 {fill:#060606}
    .fil2 {fill:#BDC0C2}
    .fil3 {fill:#DF0006}
    .fil8 {fill:white;fill-rule:nonzero}
    .fil9 {fill:url(#id0)}
    .fil4 {fill:url(#id1)}
    .fil5 {fill:url(#id2)}
    .fil1 {fill:url(#id3)}
    .fil10 {fill:url(#id4)}
   ]]>
  </style>
  <linearGradient id="id0" gradientUnits="userSpaceOnUse" x1="3308.68" y1="316.64" x2="3693.92" y2="316.64">
   <stop offset="0" style="stop-opacity:1; stop-color:#DF0006"/>
   <stop offset="1" style="stop-opacity:1; stop-color:#FE2F2F"/>
  </linearGradient>
  <linearGradient id="id1" gradientUnits="userSpaceOnUse" x1="387.42" y1="277.93" x2="529.37" y2="334.7">
   <stop offset="0" style="stop-opacity:1; stop-color:#290000"/>
   <stop offset="1" style="stop-opacity:1; stop-color:#DF0006"/>
  </linearGradient>
  <linearGradient id="id2" gradientUnits="userSpaceOnUse" x1="315.22" y1="287.17" x2="610.02" y2="310.08">
   <stop offset="0" style="stop-opacity:1; stop-color:#3F3434"/>
   <stop offset="1" style="stop-opacity:1; stop-color:black"/>
  </linearGradient>
  <linearGradient id="id3" gradientUnits="userSpaceOnUse" x1="15.8" y1="449.58" x2="545.26" y2="164.67">
   <stop offset="0" style="stop-opacity:1; stop-color:#787878"/>
   <stop offset="1" style="stop-opacity:1; stop-color:#FEFEFE"/>
  </linearGradient>
  <linearGradient id="id4" gradientUnits="userSpaceOnUse" x1="3367.88" y1="301.28" x2="4049.77" y2="551.5">
   <stop offset="0" style="stop-opacity:1; stop-color:#8C0006"/>
   <stop offset="1" style="stop-opacity:1; stop-color:#DF0006"/>
  </linearGradient>
 </defs>
 <g id="Camada_x0020_1">
  <metadata id="CorelCorpID_0Corel-Layer"/>
  <g id="_1985650834064">
   <g>
    <circle class="fil0" transform="matrix(0.640379 -0.0332804 -0 0.640379 323.816 319.378)" r="489.93"/>
    <path class="fil1" d="M323.82 41.49c153.47,-7.98 277.89,109.97 277.89,263.44 0,153.47 -124.42,284.35 -277.89,292.33 -153.47,7.98 -277.89,-109.97 -277.89,-263.44 0,-153.47 124.41,-284.35 277.89,-292.33z"/>
    <path class="fil2" d="M311.01 30.54c158.53,-8.24 287.05,114.64 287.05,274.47 0,159.82 -128.52,296.06 -287.05,304.3 -158.53,8.24 -287.05,-114.64 -287.05,-274.47 0,-159.82 128.52,-296.06 287.05,-304.3zm0 -24.16c171.77,-8.93 311.02,124.22 311.02,297.38 0,173.16 -139.25,320.78 -311.02,329.71 -171.77,8.93 -311.01,-124.22 -311.01,-297.38 0,-173.17 139.25,-320.78 311.01,-329.71z"/>
   </g>
   <path class="fil3" d="M174.82 529.56c-0.72,13.93 -14.17,88.24 -37.24,82.45 -4.01,-1 -6.69,-2.83 -7.57,-3.25 -0.45,-0.22 1.86,2.18 2.43,3 1.66,2.41 15.18,13.51 29.97,13.38 14.8,-0.13 36.47,-3.03 51.87,-4.81 15.4,-1.78 28.26,-5.6 38.76,-10.69 10.5,-5.09 18.65,-11.45 24.5,-18.26 5.85,-6.81 8.27,-20.18 10.05,-33.35 5.03,-37.18 1.78,-133.74 1.78,-155.62 0,-30.24 24.75,-54.99 54.99,-54.99l64.65 0 0.76 0 0.77 0 0.77 0 0.78 0 0.78 0 0.79 0 0.79 0 3.98 0 0.01 -0.01c15.14,-0.05 33.16,-0.4 55.62,-2.92 26.09,-2.93 58.17,-8.78 78.6,-16.35 20.43,-7.57 29.21,-16.87 35.26,-25.78 6.05,-8.91 9.35,-17.44 11.07,-27.3 1.72,-9.86 1.85,-21.06 -0.44,-32.52 -2.29,-11.46 -7,-23.16 -13.11,-32.65 -6.11,-9.48 -13.62,-16.74 -19.47,-21.38 -5.86,-4.65 -10.06,-6.68 -11.9,-7.2 -1.85,-0.51 -1.34,0.51 -2.61,4.33 -1.27,3.82 -4.33,10.44 -10.25,15.78 -5.92,5.35 -14.71,9.42 -28.83,13.43 -14.13,4.01 -33.6,7.95 -49.26,9.93 -11.49,1.45 -20.93,1.83 -29.64,2.49l-101.34 -0.52c-86.52,-0.44 -157.33,70.8 -157.33,157.33l0 145.48z"/>
   <path class="fil4" d="M289.42 407.76c-0.03,-2.09 -0.04,-3.9 -0.04,-5.36 0,-30.24 24.75,-54.99 54.99,-54.99l64.65 0 0.76 0 0.77 0 0.77 0 0.78 0 0.78 0 0.79 0 0.79 0 3.98 0 0.01 -0.01c15.14,-0.05 33.16,-0.4 55.62,-2.92 26.09,-2.93 58.17,-8.78 78.6,-16.35 20.43,-7.57 29.21,-16.87 35.26,-25.78 6.05,-8.91 9.35,-17.44 11.07,-27.3 1.72,-9.86 1.85,-21.06 -0.44,-32.52 -2.29,-11.46 -7,-23.16 -13.11,-32.65 -6.11,-9.48 -13.62,-16.74 -19.47,-21.38 -5.86,-4.65 -10.06,-6.68 -11.9,-7.2 -1.85,-0.51 -1.34,0.51 -2.61,4.33 -1.27,3.82 -4.33,10.44 -10.25,15.78 -5.92,5.35 -14.71,9.42 -28.83,13.43 -14.13,4.01 -33.6,7.95 -49.26,9.93 -11.49,1.45 -20.93,1.83 -29.64,2.49l-68.88 -0.35c-0.42,0 -10.21,-0.06 -10.63,-0.05 -12.87,-0.07 -24.83,3.72 -35.74,13.55 -10.91,9.83 -27.67,43.97 -29.09,78.22 -1.42,34.25 0.27,58.24 0.27,89.14z"/>
   <ellipse class="fil3" cx="233.19" cy="181.15" rx="55.36" ry="59.51"/>
   <path class="fil5" d="M497.59 111.1c-30.13,2.61 -52.15,10.68 -50.03,59.54 3.8,87.41 14.15,185.79 11.74,281.84 -0.66,26.25 -3.71,58.71 -9.49,79.72 -5.77,21.01 -14.97,36.22 -23.96,42.13 -20.57,13.51 -51.6,-0.59 -59.11,-1.07 -71.27,-4.54 -70.63,-24.42 -67.92,-38.65 0.04,-0.23 10.15,10.82 17,5.65 11.16,-8.43 14.9,-24.09 17.65,-38.4 5.31,-27.64 5.85,-51.9 5.54,-79.68l-12.72 -253.28c-4.34,-86.42 58.05,-158.66 144.25,-166.15 37.32,-3.24 74.98,-3.83 112.35,-0.63 20.18,1.73 29.96,5.11 38.22,10.36 8.26,5.26 15.01,12.39 19.2,22.6 4.2,10.2 4.73,19.27 3.71,36.19 -1.02,16.92 -4.72,37.49 -9.81,50.38 -5.09,12.9 -11.57,18.13 -13.66,16.77 -2.08,-1.35 0.24,-9.29 -4.04,-16.04 -4.28,-6.75 -15.17,-12.33 -29.19,-14.49 -22.65,-3.49 -65.59,1.1 -89.74,3.2z"/>
   <path class="fil6" d="M162.05 203.34c-2.78,1.33 -8.05,4.56 -10.91,8.63 -2.87,4.07 -3.33,8.98 -2.88,15.4 0.44,6.41 1.79,14.34 6.73,23.72 4.94,9.37 13.47,20.2 18.54,25.79 5.07,5.59 6.68,5.96 8.56,5.63 1.88,-0.34 4.03,-1.37 6.18,-4.3 2.15,-2.93 4.3,-7.74 6.06,-10.67 1.76,-2.93 3.15,-3.97 5.5,-5.68 2.35,-1.71 5.68,-4.09 7.35,-5.28 1.66,-1.19 1.66,-1.19 -2.68,-3.47 -4.35,-2.28 -13.05,-6.85 -19.85,-13.11 -6.8,-6.26 -11.72,-14.21 -14.46,-20.43 -2.74,-6.23 -3.31,-10.75 -3.75,-13.2 -0.44,-2.45 -0.74,-2.83 -1.03,-3.3 -0.29,-0.48 -0.57,-1.05 -3.34,0.28z"/>
   <path class="fil6" d="M137.58 230.23c0,0 -27.62,5.96 -34.38,10.82 -5.82,4.19 -24.72,35.12 -40.25,46.54 -5.83,4.28 -14.1,6.41 -12.34,17.5 1.71,10.77 23.04,39.29 29.75,42.64 6.65,2.56 30.59,-28.37 39.44,-32.43 2.28,34.74 2.74,77.2 1.42,112.37 -0.57,15.3 -6.16,61.57 -4.37,67.56 0.82,2.19 1.73,1.42 9.62,5.04 7.32,3.37 26.97,12.32 34.78,14.82 0.76,-5.56 1.14,-11.19 1.43,-16.78l0.4 -120.85c0,-24.9 8.4,-56.81 17.63,-78.47 -5.93,-1.71 -17.06,-15.29 -21.26,-20.47 -9.08,-11.17 -21.02,-32.73 -21.89,-48.29z"/>
   <path class="fil7" d="M333.46 501.86c-2.75,14.31 -6.49,29.97 -17.65,38.4 -1.63,1.24 -3.45,1.54 -5.27,1.31 4.01,1.24 8.63,2.5 15.63,3.83 9.36,1.78 22.97,3.69 36.02,3.75 13.05,0.06 25.52,-1.72 33.35,-3.25 7.83,-1.53 11.01,-2.8 11.85,-1.69 0.75,1 -0.37,3.91 -1.26,7.99 -0.1,0.47 -0.2,0.96 -0.29,1.46 -0.89,4.84 -1.17,11.01 1.58,15.05 2.75,4.04 8.54,5.96 14.72,4.56 3.35,-0.76 6.81,-2.49 10.22,-4.84 4.5,-5.18 8.83,-12.53 12.51,-21.6 1.82,-4.48 3.48,-9.39 4.93,-14.65 5.78,-21.01 8.84,-53.47 9.49,-79.72 0.89,-35.38 -0.2,-71.07 -2.03,-106.42 -2.11,-40.78 -5.21,-81.09 -7.39,-119.94 -1.06,-18.88 -1.11,-37.44 -2.32,-55.48 -3.17,-47.41 19.9,-56.93 50.03,-59.54 5.52,-0.48 12.01,-1.09 19.02,-1.7 -3.8,0.1 -7.7,0.31 -11.69,0.65 -31.34,2.65 -69.06,13.05 -96.05,24.83 -26.99,11.78 -43.26,24.94 -54.7,41.44 -9.64,13.9 -15.86,30.17 -20.09,50.44 -0.27,1.31 -0.54,2.63 -0.79,3.98 -0.49,2.55 -0.95,5.16 -1.38,7.84 -0.57,3.52 -1.1,7.16 -1.58,10.89l4.96 98.71 3.72 74.01c0.31,27.78 -0.23,52.04 -5.54,79.68z"/>
  </g>
  <polygon class="fil8" points="978.38,275.06 978.38,342.54 880.64,342.54 880.64,595.41 806.18,595.41 806.18,38.49 990.78,38.49 990.78,105.97 880.64,105.97 880.64,275.06 "/>
  <path id="_1" class="fil8" d="M1111.79 595.41l-74.46 0 0 -461.52c0,-63.6 29.73,-95.41 89.2,-95.41l55.85 0c59.47,0 89.2,31.8 89.2,95.41l0 461.52 -74.46 0 0 -204 -85.32 0 0 204zm85.32 -271.48l0 -185.38c0,-21.72 -10.86,-32.58 -32.58,-32.58l-20.17 0c-21.72,0 -32.58,10.86 -32.58,32.58l0 185.38 85.32 0z"/>
  <path id="_2" class="fil8" d="M1314.24 38.49l145.82 0c56.88,0 85.32,31.8 85.32,95.41l0 137.29c0,48.61 -14.74,79.37 -44.21,92.3l51.97 231.92 -70.59 0 -48.87 -224.94 -44.99 0 0 224.94 -74.46 0 0 -556.92zm74.46 268.38l48.87 0c22.24,0 33.35,-13.44 33.35,-40.34l0 -120.23c0,-26.89 -11.12,-40.34 -33.35,-40.34l-48.87 0 0 200.9z"/>
  <path id="_3" class="fil8" d="M1599.68 595.41l0 -556.92 129.53 0c69.81,0 104.71,35.68 104.71,107.04l0 369.21c0,53.78 -29.73,80.67 -89.2,80.67l-145.05 0zm74.46 -67.48l55.85 0c19.65,0 29.48,-8.27 29.48,-24.82l0 -356.8c0,-26.89 -11.12,-40.34 -33.35,-40.34l-51.97 0 0 421.96z"/>
  <path id="_4" class="fil8" d="M1962.69 595.41l-74.46 0 0 -461.52c0,-63.6 29.73,-95.41 89.2,-95.41l55.85 0c59.47,0 89.2,31.8 89.2,95.41l0 461.52 -74.46 0 0 -204 -85.32 0 0 204zm85.32 -271.48l0 -185.38c0,-21.72 -10.86,-32.58 -32.58,-32.58l-20.17 0c-21.72,0 -32.58,10.86 -32.58,32.58l0 185.38 85.32 0z"/>
  <path id="_5" class="fil8" d="M3930.54 188.19l0 -48.87c0,-22.24 -10.86,-33.35 -32.58,-33.35l-11.64 0c-21.2,0 -31.8,11.12 -31.8,33.35l0 92.3c0,10.34 2.07,17.32 6.21,20.94 4.14,3.62 10.86,8.27 20.17,13.96l70.58 38.01c15.51,8.79 26.5,15.64 32.97,20.56 6.47,4.91 11.51,10.86 15.13,17.84 3.62,6.98 5.43,20.3 5.43,39.95l0 118.68c0,62.57 -29.99,93.86 -89.97,93.86l-45.77 0c-59.47,0 -89.2,-34.13 -89.2,-102.39l0 -27.92 74.46 0 0 30.25c0,21.72 11.12,32.58 33.35,32.58l13.19 0c19.65,0 29.47,-10.86 29.47,-32.58l0 -94.63c0,-10.34 -2.07,-17.32 -6.21,-20.94 -4.14,-3.62 -10.86,-8.27 -20.17,-13.96l-70.58 -39.56c-15.51,-8.27 -26.76,-15.26 -33.74,-20.94 -6.98,-5.69 -12.02,-13.06 -15.13,-22.11 -3.1,-9.05 -4.65,-20.81 -4.65,-35.29l0 -114.02c0,-63.6 29.73,-95.41 89.2,-95.41l46.54 0c59.47,0 89.2,31.8 89.2,95.41l0 54.3 -74.46 0z"/>
  <polygon id="_6" class="fil8" points="2331.9,365.82 2400.94,38.49 2483.16,38.49 2483.16,595.41 2408.69,595.41 2416.45,230.85 2360.6,494.58 2303.2,494.58 2247.36,230.85 2255.11,595.41 2180.65,595.41 2180.65,38.49 2262.87,38.49 "/>
  <polygon id="_7" class="fil8" points="2552.97,595.41 2552.97,38.49 2737.57,38.49 2737.57,105.97 2627.43,105.97 2627.43,275.06 2725.16,275.06 2725.16,342.54 2627.43,342.54 2627.43,527.93 2737.57,527.93 2737.57,595.41 "/>
  <polygon id="_8" class="fil8" points="2945.45,307.64 2945.45,38.49 3019.91,38.49 3019.91,595.41 2945.45,595.41 2945.45,484.49 2865.56,230.85 2865.56,595.41 2791.09,595.41 2791.09,38.49 2865.56,38.49 "/>
  <polygon id="_9" class="fil8" points="3208.4,105.97 3208.4,595.41 3133.94,595.41 3133.94,105.97 3062.57,105.97 3062.57,38.49 3279.76,38.49 3279.76,105.97 "/>
  <g id="_1985650783280">
   <path class="fil9" d="M3501.3 124.02c106.38,0 192.62,86.24 192.62,192.62 0,106.38 -86.24,192.62 -192.62,192.62 -106.38,0 -192.62,-86.24 -192.62,-192.62 0,-106.38 86.24,-192.62 192.62,-192.62zm-50.3 115.47c16.12,0 29.19,13.07 29.19,29.19 0,16.12 -13.07,29.19 -29.19,29.19 -16.12,0 -29.19,-13.07 -29.19,-29.19 0,-16.12 13.07,-29.19 29.19,-29.19zm100.61 95.94c16.12,0 29.19,13.07 29.19,29.19 0,16.12 -13.07,29.19 -29.19,29.19 -16.12,0 -29.19,-13.07 -29.19,-29.19 0,-16.12 13.07,-29.19 29.19,-29.19zm-100.61 0c16.12,0 29.19,13.07 29.19,29.19 0,16.12 -13.07,29.19 -29.19,29.19 -16.12,0 -29.19,-13.07 -29.19,-29.19 0,-16.12 13.07,-29.19 29.19,-29.19zm100.61 -95.94c16.12,0 29.19,13.07 29.19,29.19 0,16.12 -13.07,29.19 -29.19,29.19 -16.12,0 -29.19,-13.07 -29.19,-29.19 0,-16.12 13.07,-29.19 29.19,-29.19z"/>
   <path class="fil10" d="M3498.18 58.35c142.8,0 258.57,115.77 258.57,258.57 0,142.8 -115.77,258.57 -258.57,258.57 -142.8,0 -258.57,-115.77 -258.57,-258.57 0,-142.8 115.77,-258.57 258.57,-258.57zm0 89.96c93.12,0 168.61,75.49 168.61,168.61 0,93.12 -75.49,168.61 -168.61,168.61 -93.12,0 -168.61,-75.49 -168.61,-168.61 0,-93.12 75.49,-168.61 168.61,-168.61z"/>
  </g>
 </g>
</svg>
